<svg xmlns="http://www.w3.org/2000/svg">
    <symbol id="sprite-right-arrow" viewBox="0 0 448 512">
        <!--!Font Awesome Free 6.7.2 by @fontawesome - https://fontawesome.com License - https://fontawesome.com/license/free Copyright 2025 Fonticons, Inc.-->
        <path d="M438.6 278.6c12.5-12.5 12.5-32.8 0-45.3l-160-160c-12.5-12.5-32.8-12.5-45.3 0s-12.5 32.8 0 45.3L338.8 224 32 224c-17.7 0-32 14.3-32 32s14.3 32 32 32l306.7 0L233.4 393.4c-12.5 12.5-12.5 32.8 0 45.3s32.8 12.5 45.3 0l160-160z"/>
    </symbol>


    <symbol id="sprite-down-arrow" viewBox="0 0 384 512">
        <!--!Font Awesome Free 6.7.2 by @fontawesome - https://fontawesome.com License - https://fontawesome.com/license/free Copyright 2025 Fonticons, Inc.-->
        <path d="M169.4 470.6c12.5 12.5 32.8 12.5 45.3 0l160-160c12.5-12.5 12.5-32.8 0-45.3s-32.8-12.5-45.3 0L224 370.8 224 64c0-17.7-14.3-32-32-32s-32 14.3-32 32l0 306.7L54.6 265.4c-12.5-12.5-32.8-12.5-45.3 0s-12.5 32.8 0 45.3l160 160z"/>
    </symbol>

    <symbol id="sprite-discord" viewBox="0 0 640 512">
        <!--!Font Awesome Free 6.7.2 by @fontawesome - https://fontawesome.com License - https://fontawesome.com/license/free Copyright 2025 Fonticons, Inc.-->
        <path d="M524.5 69.8a1.5 1.5 0 0 0 -.8-.7A485.1 485.1 0 0 0 404.1 32a1.8 1.8 0 0 0 -1.9 .9 337.5 337.5 0 0 0 -14.9 30.6 447.8 447.8 0 0 0 -134.4 0 309.5 309.5 0 0 0 -15.1-30.6 1.9 1.9 0 0 0 -1.9-.9A483.7 483.7 0 0 0 116.1 69.1a1.7 1.7 0 0 0 -.8 .7C39.1 183.7 18.2 294.7 28.4 404.4a2 2 0 0 0 .8 1.4A487.7 487.7 0 0 0 176 479.9a1.9 1.9 0 0 0 2.1-.7A348.2 348.2 0 0 0 208.1 430.4a1.9 1.9 0 0 0 -1-2.6 321.2 321.2 0 0 1 -45.9-21.9 1.9 1.9 0 0 1 -.2-3.1c3.1-2.3 6.2-4.7 9.1-7.1a1.8 1.8 0 0 1 1.9-.3c96.2 43.9 200.4 43.9 295.5 0a1.8 1.8 0 0 1 1.9 .2c2.9 2.4 6 4.9 9.1 7.2a1.9 1.9 0 0 1 -.2 3.1 301.4 301.4 0 0 1 -45.9 21.8 1.9 1.9 0 0 0 -1 2.6 391.1 391.1 0 0 0 30 48.8 1.9 1.9 0 0 0 2.1 .7A486 486 0 0 0 610.7 405.7a1.9 1.9 0 0 0 .8-1.4C623.7 277.6 590.9 167.5 524.5 69.8zM222.5 337.6c-29 0-52.8-26.6-52.8-59.2S193.1 219.1 222.5 219.1c29.7 0 53.3 26.8 52.8 59.2C275.3 311 251.9 337.6 222.5 337.6zm195.4 0c-29 0-52.8-26.6-52.8-59.2S388.4 219.1 417.9 219.1c29.7 0 53.3 26.8 52.8 59.2C470.7 311 447.5 337.6 417.9 337.6z"/>
    </symbol>

    <symbol id="sprite-mastodon" viewBox="0 0 448 512">
        <!--!Font Awesome Free 6.7.2 by @fontawesome - https://fontawesome.com License - https://fontawesome.com/license/free Copyright 2025 Fonticons, Inc.-->
        <path d="M433 179.1c0-97.2-63.7-125.7-63.7-125.7-62.5-28.7-228.6-28.4-290.5 0 0 0-63.7 28.5-63.7 125.7 0 115.7-6.6 259.4 105.6 289.1 40.5 10.7 75.3 13 103.3 11.4 50.8-2.8 79.3-18.1 79.3-18.1l-1.7-36.9s-36.3 11.4-77.1 10.1c-40.4-1.4-83-4.4-89.6-54a102.5 102.5 0 0 1 -.9-13.9c85.6 20.9 158.7 9.1 178.8 6.7 56.1-6.7 105-41.3 111.2-72.9 9.8-49.8 9-121.5 9-121.5zm-75.1 125.2h-46.6v-114.2c0-49.7-64-51.6-64 6.9v62.5h-46.3V197c0-58.5-64-56.6-64-6.9v114.2H90.2c0-122.1-5.2-147.9 18.4-175 25.9-28.9 79.8-30.8 103.8 6.1l11.6 19.5 11.6-19.5c24.1-37.1 78.1-34.8 103.8-6.1 23.7 27.3 18.4 53 18.4 175z"/>
    </symbol>
</svg>
